# xmcd
#
# Track frame offsets:
#	182
#	21457
#	35407
#	49507
#	68182
#	86557
#	102307
#	123757
#	142957
#	162157
#	180907
#	204082
#
# Disc length: 2937 seconds
#
# Revision: 1
# Processed by: cddbd v1.5PL3 Copyright (c) Steve Scherf et al.
# Submitted via: audiograbber 1.82.02
#
DISCID=920b770c
DTITLE=Kate Meehan - As Long As I've Sung The Blues
DYEAR=2001
DGENRE=Blues
TTITLE0=As Long As I've Sung The Blues
TTITLE1=Money Hungry Man
TTITLE2=Spell It Out
TTITLE3=Let's Go Back
TTITLE4=Pocket Full Of Blues
TTITLE5=Exception To The Rule
TTITLE6=I Wish You The Best
TTITLE7=Leave The Past Behind
TTITLE8=Room For More
TTITLE9=Cut You Loose
TTITLE10=I'm A Woman
TTITLE11=It Aint Like It Is
EXTD=
EXTT0=
EXTT1=
EXTT2=
EXTT3=
EXTT4=
EXTT5=
EXTT6=
EXTT7=
EXTT8=
EXTT9=
EXTT10=
EXTT11=
PLAYORDER=
